<svg xmlns="http://www.w3.org/2000/svg" viewBox="0 0 640 512"><!--!Font Awesome Pro 6.7.2 by @fontawesome - https://fontawesome.com License - https://fontawesome.com/license (Commercial License) Copyright 2025 Fonticons, Inc.--><path d="M0 40C0 26.7 10.7 16 24 16s24 10.7 24 24l0 128c0 4.4 3.6 8 8 8l8 0L64 40c0-13.3 10.7-24 24-24s24 10.7 24 24l0 136 8 0c4.4 0 8-3.6 8-8l0-128c0-13.3 10.7-24 24-24s24 10.7 24 24l0 128c0 30.9-25.1 56-56 56l-8 0 0 248c0 13.3-10.7 24-24 24s-24-10.7-24-24l0-248-8 0c-30.9 0-56-25.1-56-56L0 40zM144 252.6c5.7-1.6 11.1-3.8 16.3-6.4c-.2 3.2-.3 6.5-.3 9.7c0 95.9 76.6 173.8 172 176c6.7 17.1 15.9 32.9 27.3 46.9c-7.7 .8-15.4 1.2-23.3 1.2c-81.5 0-152.8-43.5-192-108.6l0-118.8zM208 72.2C244.3 46.8 288.4 32 336 32c60.3 0 115 23.8 155.3 62.5c-6.5 17.5-10.6 37.5-11.2 60.3C448.2 109.6 395.6 80 336 80c-50.4 0-95.9 21.2-128 55.2l0-63zM208 256c0-45.7 24.4-88 64-110.9s88.4-22.9 128 0c21.9 12.6 39.1 31.1 50.1 52.9c-15.8 4.2-30.7 10.6-44.4 18.8c-6.9-12.3-17.1-22.8-29.8-30.1c-24.8-14.3-55.2-14.3-80 0s-40 40.7-40 69.3s15.2 55 40 69.3c8.5 4.9 17.7 8.1 27.1 9.7c-2 10.7-3.1 21.8-3.1 33c0 5.1 .2 10.1 .6 15.1c-16.9-2-33.4-7.4-48.6-16.2C232.4 344 208 301.7 208 256zM352 368c0-79.5 64.5-144 144-144s144 64.5 144 144s-64.5 144-144 144s-144-64.5-144-144zm128-64l0 64c0 8.8 7.2 16 16 16l48 0c8.8 0 16-7.2 16-16s-7.2-16-16-16l-32 0 0-48c0-8.8-7.2-16-16-16s-16 7.2-16 16zm32-144C512 59.2 596.2 23.2 613.1 17c2-.7 4-1 6.1-1c11.5 0 20.9 9.3 20.9 20.9L640 216l0 50.8c-12.9-18.3-29.2-34-48-46.3l0-4.5 0-130.8c-16.6 15.3-32 39.1-32 74.8l0 44c-15.1-5.9-31.2-9.8-48-11.3l0-32.7z"/></svg>