<svg xmlns="http://www.w3.org/2000/svg" viewBox="0 0 640 512"><!--!Font Awesome Pro 6.6.0 by @fontawesome - https://fontawesome.com License - https://fontawesome.com/license (Commercial License) Copyright 2024 Fonticons, Inc.--><path d="M0 256C0 164.5 48.8 80 128 34.3s176.8-45.7 256 0c60.3 34.8 103 92.1 119.9 157.9c-2.6-.1-5.3-.2-7.9-.2c-14 0-27.6 1.6-40.6 4.7c-15-50.3-48.7-93.9-95.4-120.8c-64.4-37.2-143.6-37.2-208 0S48 181.7 48 256s39.6 143 104 180.1c57.4 33.1 126.7 36.7 186.7 10.7c7.4 14.7 16.7 28.1 27.7 40.1c-75.7 36.2-164.9 33.1-238.4-9.3C48.8 432 0 347.5 0 256zm120.5 6.4c-2.1-10.2 3.3-20.5 12.9-24.6l196-84c8.5-3.5 18-1.7 24.2 4.7c6.4 6.3 8.2 15.9 4.7 24.2l-.1 0-84 196c-3.5 8.1-11.4 13.3-20.2 13.3c-1.4 0-2.9-.1-4.4-.4C239.4 389.5 232 380.4 232 370l0-90-90 0c-10.4 0-19.5-7.4-21.5-17.6zM352 368c0-79.5 64.5-144 144-144s144 64.5 144 144s-64.5 144-144 144s-144-64.5-144-144zm66.3 80.7C438.5 468.1 465.8 480 496 480s57.5-11.9 77.7-31.3c-6.2-19-24-32.7-45.1-32.7l-65.2 0c-21 0-38.9 13.7-45.1 32.7zM448 336c0 26.5 21.5 48 48 48s48-21.5 48-48s-21.5-48-48-48s-48 21.5-48 48z"/></svg>