<svg xmlns="http://www.w3.org/2000/svg" viewBox="0 0 640 512"><!--!Font Awesome Pro 6.7.2 by @fontawesome - https://fontawesome.com License - https://fontawesome.com/license (Commercial License) Copyright 2025 Fonticons, Inc.--><path d="M5.1 9.2C13.3-1.2 28.4-3.1 38.8 5.1L186 120.5c23-35.1 59.4-60.7 102-69.3L288 32c0-17.7 14.3-32 32-32s32 14.3 32 32l0 19.2C425 66 480 130.6 480 208l0 25.4c0 45.4 15.5 89.5 43.8 125L538.7 377c5.2 6.5 6.6 15.2 3.9 23l88.2 69.1c10.4 8.2 12.3 23.3 4.1 33.7s-23.3 12.3-33.7 4.1L9.2 42.9C-1.2 34.7-3.1 19.6 5.1 9.2zM98.4 402.4c-4-8.3-2.9-18.2 2.9-25.4l14.9-18.7c28.3-35.4 43.8-79.5 43.8-124.9l0-11.3 46.7 36.8c-4 38.9-17.2 76.3-38.4 109.2l176.9 0 60.9 48L120 416c-9.2 0-17.6-5.3-21.6-13.6zM224 150.3L450.8 328c-12.3-29.8-18.8-61.9-18.8-94.6l0-25.4c0-61.9-50.1-112-112-112c-40.8 0-76.4 21.7-96 54.3zM256 448l64 0 64 0c0 17-6.7 33.3-18.7 45.3s-28.3 18.7-45.3 18.7s-33.3-6.7-45.3-18.7s-18.7-28.3-18.7-45.3z"/></svg>