<svg xmlns="http://www.w3.org/2000/svg" viewBox="0 0 640 512"><!--!Font Awesome Pro 6.7.2 by @fontawesome - https://fontawesome.com License - https://fontawesome.com/license (Commercial License) Copyright 2025 Fonticons, Inc.--><path d="M0 56C0 25.1 25.1 0 56 0l80 0c13.3 0 24 10.7 24 24s-10.7 24-24 24L56 48c-4.4 0-8 3.6-8 8l0 80c0 13.3-10.7 24-24 24s-24-10.7-24-24L0 56zM0 376c0-13.3 10.7-24 24-24s24 10.7 24 24l0 80c0 4.4 3.6 8 8 8l80 0c13.3 0 24 10.7 24 24s-10.7 24-24 24l-80 0c-30.9 0-56-25.1-56-56l0-80zM96 152c0-13.3 10.7-24 24-24s24 10.7 24 24l0 208c0 13.3-10.7 24-24 24s-24-10.7-24-24l0-208zm80-8c0-8.8 7.2-16 16-16s16 7.2 16 16l0 224c0 8.8-7.2 16-16 16s-16-7.2-16-16l0-224zm64 8c0-13.3 10.7-24 24-24s24 10.7 24 24l0 208c0 13.3-10.7 24-24 24s-24-10.7-24-24l0-208zM352 368c0-79.5 64.5-144 144-144s144 64.5 144 144s-64.5 144-144 144s-144-64.5-144-144zm16-216c0-13.3 10.7-24 24-24s24 10.7 24 24l0 59.2c-18 9.2-34.2 21.4-48 36l0-95.2zM416 24c0-13.3 10.7-24 24-24l80 0c30.9 0 56 25.1 56 56l0 80c0 13.3-10.7 24-24 24s-24-10.7-24-24l0-80c0-4.4-3.6-8-8-8l-80 0c-13.3 0-24-10.7-24-24zm2.3 424.7C438.5 468.1 465.8 480 496 480s57.5-11.9 77.7-31.3c-6.2-19-24-32.7-45.1-32.7l-65.2 0c-21 0-38.9 13.7-45.1 32.7zM448 144c0-8.8 7.2-16 16-16s16 7.2 16 16l0 48.7c-11 1-21.7 3-32 5.9l0-54.6zm0 192c0 26.5 21.5 48 48 48s48-21.5 48-48s-21.5-48-48-48s-48 21.5-48 48z"/></svg>