<svg xmlns="http://www.w3.org/2000/svg" viewBox="0 0 640 512"><!--!Font Awesome Pro 6.7.2 by @fontawesome - https://fontawesome.com License - https://fontawesome.com/license (Commercial License) Copyright 2025 Fonticons, Inc.--><path d="M0 416c0 22.9 12.2 44 32 55.4s44.2 11.4 64 0s32-32.6 32-55.4s-12.2-44-32-55.4s-44.2-11.4-64 0S0 393.1 0 416zM8.6 64c-11.4 19.8-11.4 44.2 0 64S41.1 160 64 160s44-12.2 55.4-32s11.4-44.2 0-64S86.9 32 64 32S20 44.2 8.6 64zm0 160c-11.4 19.8-11.4 44.2 0 64S41.1 320 64 320s44-12.2 55.4-32s11.4-44.2 0-64S86.9 192 64 192s-44 12.2-55.4 32zM40 256c0-13.3 10.7-24 24-24s24 10.7 24 24s-10.7 24-24 24s-24-10.7-24-24zm0 160c0-13.3 10.7-24 24-24s24 10.7 24 24s-10.7 24-24 24s-24-10.7-24-24zM160 96c0 13.3 10.7 24 24 24l304 0c13.3 0 24-10.7 24-24s-10.7-24-24-24L184 72c-13.3 0-24 10.7-24 24zm0 160c0 13.3 10.7 24 24 24l159.5 0c10.6-18.4 24.5-34.6 40.7-48L184 232c-13.3 0-24 10.7-24 24zm0 160c0 13.3 10.7 24 24 24l151.4 0c-6.7-15-11.4-31.1-13.8-48L184 392c-13.3 0-24 10.7-24 24zm192-48c0 79.5 64.5 144 144 144s144-64.5 144-144s-64.5-144-144-144s-144 64.5-144 144zm64 0c0-8.8 7.2-16 16-16l48 0 0-48c0-8.8 7.2-16 16-16s16 7.2 16 16l0 48 48 0c8.8 0 16 7.2 16 16s-7.2 16-16 16l-48 0 0 48c0 8.8-7.2 16-16 16s-16-7.2-16-16l0-48-48 0c-8.8 0-16-7.2-16-16z"/></svg>