<svg xmlns="http://www.w3.org/2000/svg" viewBox="0 0 640 512"><!--!Font Awesome Pro 6.6.0 by @fontawesome - https://fontawesome.com License - https://fontawesome.com/license (Commercial License) Copyright 2024 Fonticons, Inc.--><path d="M0 24C0 10.7 10.7 0 24 0L69.5 0C91.6 0 111 12.8 120.1 32l411 0c26.3 0 45.5 25 38.6 50.4L538.8 197.2c-13.7-3.4-28-5.2-42.8-5.2c-1.8 0-3.7 0-5.5 .1L520.7 80 131.1 80l30.5 160 213.6 0c-14.6 13.8-26.8 30-36 48l-168.5 0 5.4 28.5c2.2 11.3 12.1 19.5 23.6 19.5l123.2 0c-1.9 10.4-2.9 21.1-2.9 32c0 5.4 .2 10.7 .7 16l-121 0c-34.5 0-64.2-24.5-70.7-58.5L77.4 54.5c-.8-3.8-4.1-6.5-7.9-6.5L24 48C10.7 48 0 37.3 0 24zM134.4 440c8.6-14.9 24.4-24 41.6-24s33 9.1 41.6 24s8.6 33.1 0 48s-24.4 24-41.6 24s-33-9.1-41.6-24s-8.6-33.1 0-48zM352 368c0-79.5 64.5-144 144-144s144 64.5 144 144s-64.5 144-144 144s-144-64.5-144-144zm66.3 80.7C438.5 468.1 465.8 480 496 480s57.5-11.9 77.7-31.3c-6.2-19-24-32.7-45.1-32.7l-65.2 0c-21 0-38.9 13.7-45.1 32.7zM448 336c0 26.5 21.5 48 48 48s48-21.5 48-48s-21.5-48-48-48s-48 21.5-48 48z"/></svg>