<svg xmlns="http://www.w3.org/2000/svg" viewBox="0 0 640 512"><!--!Font Awesome Pro 6.7.2 by @fontawesome - https://fontawesome.com License - https://fontawesome.com/license (Commercial License) Copyright 2025 Fonticons, Inc.--><path d="M0 416c0 22.9 12.2 44 32 55.4s44.2 11.4 64 0s32-32.6 32-55.4s-12.2-44-32-55.4s-44.2-11.4-64 0S0 393.1 0 416zM8.6 64c-11.4 19.8-11.4 44.2 0 64S41.1 160 64 160s44-12.2 55.4-32s11.4-44.2 0-64S86.9 32 64 32S20 44.2 8.6 64zm0 160c-11.4 19.8-11.4 44.2 0 64S41.1 320 64 320s44-12.2 55.4-32s11.4-44.2 0-64S86.9 192 64 192s-44 12.2-55.4 32zM40 256c0-13.3 10.7-24 24-24s24 10.7 24 24s-10.7 24-24 24s-24-10.7-24-24zm0 160c0-13.3 10.7-24 24-24s24 10.7 24 24s-10.7 24-24 24s-24-10.7-24-24zM160 96c0 13.3 10.7 24 24 24l304 0c13.3 0 24-10.7 24-24s-10.7-24-24-24L184 72c-13.3 0-24 10.7-24 24zm0 160c0 13.3 10.7 24 24 24l283.7 0 39-39c-4.4-5.5-11.1-9-18.7-9l-304 0c-13.3 0-24 10.7-24 24zm0 160c0 13.3 10.7 24 24 24l148.5 0 4-15.9c2.8-11.2 8.6-21.5 16.8-29.7l2.4-2.4L184 392c-13.3 0-24 10.7-24 24zm193.5 76.1c-1.4 5.5 .2 11.2 4.2 15.2s9.7 5.6 15.2 4.2l60.1-15c5.6-1.4 10.8-4.3 14.9-8.4L577.1 358.9l-71-71 .1 0L376.9 417.1c-4.1 4.1-7 9.2-8.4 14.9l-15 60.1zM528.8 265.3l70.9 70.9 29.4-29.4c15.6-15.6 15.6-40.9 0-56.6l-14.3-14.3c-15.6-15.6-40.9-15.6-56.6 0l-29.4 29.4z"/></svg>