<svg xmlns="http://www.w3.org/2000/svg" viewBox="0 0 640 512"><!--!Font Awesome Pro 6.7.1 by @fontawesome - https://fontawesome.com License - https://fontawesome.com/license (Commercial License) Copyright 2024 Fonticons, Inc.--><path d="M2.4 402.4c-4-8.3-2.9-18.2 2.9-25.4l14.9-18.7C48.5 322.9 64 278.8 64 233.4L64 200c0-75.8 55.5-138.6 128-150.1L192 32c0-17.7 14.3-32 32-32s32 14.3 32 32l0 17.9C328.5 61.4 384 124.2 384 200l0 32.2c-17.4 14.3-31.9 31.9-42.8 51.9c-3.5-16.6-5.2-33.6-5.2-50.7l0-33.4c0-57.4-46.6-104-104-104l-8 0-8 0c-57.4 0-104 46.6-104 104l0 33.4C112 281.3 98.1 328 72.3 368L320 368c0 16.6 2.3 32.7 6.6 48L24 416c-9.2 0-17.6-5.3-21.6-13.6zM160 448l64 0 64 0c0 17-6.7 33.3-18.7 45.3s-28.3 18.7-45.3 18.7s-33.3-6.7-45.3-18.7s-18.7-28.3-18.7-45.3zm32-128c0-17.7 14.3-32 32-32s32 14.3 32 32s-14.3 32-32 32s-32-14.3-32-32zm8-168c0-13.3 10.7-24 24-24s24 10.7 24 24l0 80c0 13.3-10.7 24-24 24s-24-10.7-24-24l0-80zM352 368c0-79.5 64.5-144 144-144s144 64.5 144 144s-64.5 144-144 144s-144-64.5-144-144zm66.3 80.7C438.5 468.1 465.8 480 496 480s57.5-11.9 77.7-31.3c-6.2-19-24-32.7-45.1-32.7l-65.2 0c-21 0-38.9 13.7-45.1 32.7zM448 336c0 26.5 21.5 48 48 48s48-21.5 48-48s-21.5-48-48-48s-48 21.5-48 48z"/></svg>