<svg xmlns="http://www.w3.org/2000/svg" viewBox="0 0 640 512"><!--!Font Awesome Pro 6.7.1 by @fontawesome - https://fontawesome.com License - https://fontawesome.com/license (Commercial License) Copyright 2024 Fonticons, Inc.--><path d="M2.4 402.4c-4-8.3-2.9-18.2 2.9-25.4l14.9-18.7C48.5 322.9 64 278.8 64 233.4L64 200c0-75.8 55.5-138.6 128-150.1L192 32c0-17.7 14.3-32 32-32s32 14.3 32 32l0 17.9C328.5 61.4 384 124.2 384 200l0 33.4c0 .5 0 1 0 1.6c-11.6 4.4-21.9 12.7-28.6 24.2l-14.2 24.6c-3.4-16.5-5.2-33.4-5.2-50.4l0-33.4c0-57.4-46.6-104-104-104l-8 0-8 0c-57.4 0-104 46.6-104 104l0 33.4C112 281.3 98.1 328 72.3 368l267.6 0c-12.5 12.7-18.1 30.6-15.3 48L24 416c-9.2 0-17.6-5.3-21.6-13.6zM160 448l64 0 64 0c0 17-6.7 33.3-18.7 45.3s-28.3 18.7-45.3 18.7s-33.3-6.7-45.3-18.7s-18.7-28.3-18.7-45.3zm32-128c0-17.7 14.3-32 32-32s32 14.3 32 32s-14.3 32-32 32s-32-14.3-32-32zm8-168c0-13.3 10.7-24 24-24s24 10.7 24 24l0 80c0 13.3-10.7 24-24 24s-24-10.7-24-24l0-80zM363.2 316.8l24-41.6c6.6-11.5 21.3-15.4 32.8-8.8l8 4.6c4.9 2.8 10.9 2.5 15.8-.3s8.2-7.9 8.2-13.5l0-9.2c0-13.3 10.7-24 24-24l.1-.2 48 0c13.3 0 24 10.7 24 24l0 9.4c0 5.6 3.3 10.6 8.1 13.4c4.9 2.8 10.8 3.1 15.7 .3l8.2-4.7c11.5-6.6 26.2-2.7 32.8 8.8l24 41.6c6.6 11.5 2.7 26.2-8.8 32.8l-8.9 5.1c-4.6 2.6-7.2 7.7-7.2 13c0 5.7 2.7 11.1 7.6 13.9l8.4 4.9c11.5 6.6 15.4 21.3 8.8 32.8l-24 41.6c-6.6 11.5-21.3 15.4-32.8 8.8l-8.9-5.1c-4.7-2.7-10.5-2.4-15.2 .3s-7.9 7.6-7.9 13l0 10.3c0 13.3-10.7 24-24 24l-48 0c-13.3 0-24-10.7-24-24l0-10c0-5.5-3.2-10.4-7.9-13.1c-4.8-2.7-10.6-3-15.3-.3l-8.7 5c-11.5 6.6-26.2 2.7-32.8-8.8l-24-41.6c-6.6-11.5-2.7-26.1 8.7-32.8l8-4.6c5-2.9 7.8-8.4 7.8-14.1c0-5.4-2.6-10.5-7.3-13.2l-8.5-4.9c-11.5-6.6-15.4-21.3-8.8-32.8zm95.2 26.9c-8.6 14.9-8.6 33.1 0 48s24.4 24 41.6 24s33-9.1 41.6-24s8.6-33.1 0-48s-24.4-24-41.6-24s-33 9.1-41.6 24z"/></svg>