<svg xmlns="http://www.w3.org/2000/svg" viewBox="0 0 576 512"><!--!Font Awesome Pro 6.6.0 by @fontawesome - https://fontawesome.com License - https://fontawesome.com/license (Commercial License) Copyright 2024 Fonticons, Inc.--><path d="M0 192C0 86 86 0 192 0S384 86 384 192c0 2.2-.1 4.4-.2 6.7C310 219.7 256 287.5 256 368c0 22.2 4.1 43.4 11.6 62.9c-19.7 27.3-38.2 51.1-51.9 68.3c-12.3 15.3-35.1 15.3-47.4 0C117 435 0 279.4 0 192zm136.6-32c-11.4 19.8-11.4 44.2 0 64s32.6 32 55.4 32s44-12.2 55.4-32s11.4-44.2 0-64s-32.6-32-55.4-32s-44 12.2-55.4 32zM288 368c0-79.5 64.5-144 144-144s144 64.5 144 144s-64.5 144-144 144s-144-64.5-144-144zm66.3 80.7C374.5 468.1 401.8 480 432 480s57.5-11.9 77.7-31.3c-6.2-19-24-32.7-45.1-32.7l-65.2 0c-21 0-38.9 13.7-45.1 32.7zM384 336c0 26.5 21.5 48 48 48s48-21.5 48-48s-21.5-48-48-48s-48 21.5-48 48z"/></svg>