<svg xmlns="http://www.w3.org/2000/svg" viewBox="0 0 640 512"><!--!Font Awesome Pro 6.6.0 by @fontawesome - https://fontawesome.com License - https://fontawesome.com/license (Commercial License) Copyright 2024 Fonticons, Inc.--><path d="M34.3 128C80 48.8 164.5 0 256 0s176 48.8 221.7 128c6 10.3 11.1 21 15.6 31.8c-60.6 1.5-109.3 51-109.3 112c0 32.7 14 62 36.2 82.5c-56.9 11.5-99.9 61.7-100.2 122l0 1.2c.1 8.8 1.9 17.3 5.1 25c-22.2 6.2-45.4 9.5-69.1 9.5c-91.5 0-176-48.8-221.7-128s-45.7-176.8 0-256zm86.2 134.4c2 10.2 11.1 17.6 21.5 17.6l90 0 0 90c0 10.4 7.4 19.5 17.6 21.6c1.5 .3 3 .4 4.4 .4c8.8 0 16.7-5.2 20.2-13.3l84-196 .1 0c3.5-8.3 1.7-17.9-4.7-24.2c-6.2-6.4-15.7-8.2-24.2-4.7l-196 84c-9.6 4.1-15 14.4-12.9 24.6zM352 477.1c0-51.4 41.7-93.1 93.1-93.1l101.8 0c51.4 0 93.1 41.7 93.1 93.1c0 19.3-15.6 34.9-34.9 34.9l-218.2 0c-19.3 0-34.9-15.6-34.9-34.9zM426.7 232c14.3-24.8 40.7-40 69.3-40s55 15.2 69.3 40s14.3 55.2 0 80s-40.7 40-69.3 40s-55-15.2-69.3-40s-14.3-55.2 0-80z"/></svg>